<svg width="2509" height="695" viewBox="0 0 2509 695" fill="none" xmlns="http://www.w3.org/2000/svg">
<g clip-path="url(#clip0_135_250)">
<path d="M201.284 587.433C243.967 613.622 294.089 628.767 347.484 628.767C424.784 628.767 495.106 597.122 546.121 546.1C597.103 495.11 628.776 424.777 628.776 347.466V242.777H347.55C318.786 242.777 292.634 254.582 273.623 273.562C254.612 292.576 242.842 318.731 242.842 347.466C242.842 351.005 243.041 354.477 243.372 357.916L189.315 412.013C181.115 392.074 176.619 370.283 176.619 347.466C176.619 300.412 195.861 257.657 226.807 226.706C257.754 195.756 300.503 176.544 347.55 176.544H695V347.5C695 443.096 655.921 529.996 592.971 592.955C530.02 655.948 443.133 695 347.55 695C275.772 695 208.921 672.977 153.41 635.347L201.317 587.433H201.284Z" fill="#7133FF"/>
<path d="M148.912 148.834C97.9302 199.856 66.2567 270.156 66.2567 347.467C66.2567 412.939 88.9375 473.353 126.827 521.333C169.212 478.941 211.565 436.582 253.917 394.224C258.976 404.309 265.654 413.469 273.556 421.405C292.567 440.418 318.719 452.19 347.45 452.19C376.181 452.19 402.366 440.385 421.377 421.405C440.388 402.391 452.158 376.235 452.158 347.5V275.943H518.381V347.5C518.381 394.554 499.173 437.277 468.226 468.26C437.247 499.211 394.531 518.456 347.483 518.456C312.371 518.456 279.64 507.742 252.43 489.423C210.474 531.385 168.518 573.347 126.562 615.309C118.065 608.266 109.866 600.826 102.03 592.989C39.0798 530.029 0 443.13 0 347.533C0 251.937 39.0798 165.004 102.03 102.044C164.98 39.085 251.868 0 347.483 0H518.381V143.477H452.158V66.266H347.483C270.151 66.266 199.894 97.911 148.879 148.933L148.912 148.834Z" fill="#7133FF"/>
<path d="M1027.65 692C1009.2 692 991.277 689.141 973.887 683.423C956.708 677.705 941.015 669.233 926.806 658.009C912.596 646.996 900.826 633.336 891.495 617.028L952.891 585.896C960.314 600.509 970.918 611.204 984.703 617.981C998.488 624.758 1013.01 628.147 1028.28 628.147C1047.16 628.147 1063.28 624.758 1076.64 617.981C1090 611.416 1100.07 601.462 1106.86 588.12C1113.86 574.777 1117.25 558.258 1117.04 538.562V442.624H1124.99V186.894H1183.84V539.197C1183.84 548.304 1183.52 556.987 1182.89 565.247C1182.25 573.507 1181.09 581.766 1179.39 590.026C1174.51 613.11 1165.18 632.171 1151.39 647.208C1137.82 662.244 1120.43 673.469 1099.22 680.881C1078.23 688.294 1054.37 692 1027.65 692ZM1022.56 539.515C990.535 539.515 962.859 531.573 939.53 515.689C916.414 499.806 898.493 478.204 885.769 450.883C873.256 423.351 867 392.431 867 358.122C867 323.601 873.362 292.786 886.087 265.678C898.812 238.358 916.838 216.861 940.166 201.189C963.707 185.306 991.595 177.364 1023.83 177.364C1056.28 177.364 1083.53 185.306 1105.59 201.189C1127.85 216.861 1144.61 238.358 1155.85 265.678C1167.3 292.998 1173.03 323.813 1173.03 358.122C1173.03 392.431 1167.3 423.245 1155.85 450.566C1144.4 477.886 1127.54 499.594 1105.27 515.689C1083 531.573 1055.43 539.515 1022.56 539.515ZM1031.78 479.474C1053.63 479.474 1071.44 474.286 1085.23 463.908C1099.01 453.531 1109.09 439.235 1115.45 421.022C1121.81 402.808 1124.99 381.842 1124.99 358.122C1124.99 334.402 1121.7 313.435 1115.13 295.222C1108.77 277.008 1098.8 262.819 1085.23 252.653C1071.87 242.487 1054.79 237.405 1034.01 237.405C1011.95 237.405 993.822 242.805 979.613 253.606C965.404 264.407 954.8 278.914 947.801 297.128C941.015 315.341 937.622 335.673 937.622 358.122C937.622 380.783 941.015 401.326 947.801 419.751C954.8 437.964 965.191 452.472 978.976 463.273C992.974 474.074 1010.58 479.474 1031.78 479.474Z" fill="#7133FF"/>
<path d="M1273.17 529.985V186.894H1332.34V270.125L1324.07 259.324C1328.31 248.311 1333.82 238.252 1340.61 229.145C1347.39 219.826 1355.24 212.202 1364.15 206.272C1372.84 199.919 1382.49 195.048 1393.1 191.659C1403.91 188.059 1414.94 185.941 1426.18 185.306C1437.42 184.458 1448.24 184.988 1458.63 186.894V249.159C1447.39 246.194 1434.88 245.346 1421.09 246.617C1407.52 247.888 1395.01 252.229 1383.55 259.642C1372.74 266.631 1364.15 275.102 1357.79 285.056C1351.64 295.01 1347.18 306.129 1344.43 318.412C1341.67 330.484 1340.29 343.297 1340.29 356.851V529.985H1273.17Z" fill="#7133FF"/>
<path d="M1665.37 539.515C1631.23 539.515 1601.22 532.103 1575.35 517.278C1549.69 502.241 1529.64 481.38 1515.22 454.695C1501.01 427.799 1493.91 396.667 1493.91 361.298C1493.91 323.813 1500.91 291.304 1514.91 263.772C1529.11 236.24 1548.84 214.955 1574.08 199.919C1599.31 184.882 1628.68 177.364 1662.19 177.364C1697.19 177.364 1726.98 185.517 1751.58 201.825C1776.18 217.92 1794.53 240.899 1806.62 270.761C1818.92 300.622 1823.8 336.096 1821.25 377.182H1754.76V353.039C1754.34 313.223 1746.71 283.785 1731.86 264.725C1717.23 245.664 1694.85 236.134 1664.74 236.134C1631.44 236.134 1606.42 246.617 1589.66 267.584C1572.91 288.55 1564.53 318.836 1564.53 358.439C1564.53 396.137 1572.91 425.363 1589.66 446.118C1606.42 466.661 1630.59 476.933 1662.19 476.933C1682.98 476.933 1700.9 472.274 1715.95 462.955C1731.22 453.425 1743.1 439.871 1751.58 422.292L1816.8 442.941C1803.44 473.65 1783.18 497.476 1756.04 514.419C1728.89 531.15 1698.67 539.515 1665.37 539.515ZM1542.9 377.182V325.401H1788.17V377.182H1542.9Z" fill="#7133FF"/>
<path d="M1898.98 529.985V63H1965.47V529.985H1898.98Z" fill="#7133FF"/>
<path d="M2067.36 529.985V63H2133.85V529.985H2067.36Z" fill="#7133FF"/>
<path d="M2326.4 539.515C2300.95 539.515 2279.64 534.856 2262.46 525.537C2245.28 516.007 2232.24 503.512 2223.33 488.052C2214.64 472.379 2210.29 455.225 2210.29 436.588C2210.29 419.222 2213.37 403.973 2219.52 390.842C2225.67 377.712 2234.78 366.593 2246.87 357.486C2258.96 348.168 2273.81 340.649 2291.41 334.931C2306.68 330.484 2323.96 326.566 2343.26 323.177C2362.56 319.789 2382.81 316.612 2404.02 313.647C2425.44 310.682 2446.65 307.717 2467.65 304.752L2443.47 318.094C2443.89 291.198 2438.17 271.29 2426.29 258.371C2414.63 245.241 2394.48 238.675 2365.85 238.675C2347.82 238.675 2331.28 242.911 2316.22 251.382C2301.16 259.642 2290.67 273.408 2284.73 292.68L2222.7 273.62C2231.18 244.182 2247.3 220.779 2271.05 203.413C2295.01 186.047 2326.83 177.364 2366.48 177.364C2397.24 177.364 2423.96 182.658 2446.65 193.247C2469.55 203.625 2486.31 220.144 2496.91 242.805C2502.43 254.03 2505.82 265.89 2507.09 278.385C2508.36 290.88 2509 304.328 2509 318.73V529.985H2450.15V451.519L2461.6 461.684C2447.39 487.946 2429.26 507.536 2407.2 520.455C2385.36 533.162 2358.43 539.515 2326.4 539.515ZM2338.17 485.192C2357.05 485.192 2373.27 481.91 2386.84 475.344C2400.42 468.567 2411.34 459.99 2419.61 449.613C2427.88 439.235 2433.29 428.434 2435.83 417.21C2439.44 407.044 2441.45 395.608 2441.88 382.9C2442.51 370.193 2442.83 360.028 2442.83 352.404L2464.46 360.345C2443.47 363.522 2424.38 366.381 2407.2 368.923C2390.02 371.464 2374.44 374.006 2360.44 376.547C2346.66 378.877 2334.35 381.736 2323.54 385.124C2314.42 388.301 2306.25 392.113 2299.04 396.561C2292.05 401.008 2286.43 406.409 2282.18 412.762C2278.15 419.116 2276.14 426.846 2276.14 435.953C2276.14 444.847 2278.37 453.107 2282.82 460.731C2287.27 468.144 2294.06 474.074 2303.18 478.521C2312.3 482.969 2323.96 485.192 2338.17 485.192Z" fill="#7133FF"/>
</g>
<defs>
<clipPath id="clip0_135_250">
<rect width="2509" height="695" fill="white"/>
</clipPath>
</defs>
</svg>
